<svg width="218" height="244" viewBox="0 0 218 244" fill="none" xmlns="http://www.w3.org/2000/svg">
<g filter="url(#filter0_d)">
<g clip-path="url(#clip0)">
<path d="M108.992 229.642C154.047 176.288 188.96 122.416 209.645 67.9279C185.276 47.264 153.167 24.878 108.992 3.91998C64.833 24.92 32.7238 47.32 8.33989 67.9279C29.0401 122.416 63.9382 176.288 108.992 229.642Z" stroke="white" stroke-width="7" stroke-miterlimit="10"/>
<path d="M114.749 60.6759L113.362 187.642L122.758 182.588V159.208L126.009 156.17L126.113 60.97C160.698 62.552 191.48 76.0759 191.48 76.0759C156.045 46.8019 120.118 38.836 120.118 38.836V46.2839H97.8818V38.836C97.8818 38.836 61.9696 46.8019 26.5197 76.0759C26.5197 76.0759 57.3165 62.5099 91.8865 60.9139L92.0058 156.114L95.2421 159.152V182.476L104.653 187.53L103.266 60.6759C107.025 59.7134 110.99 59.7134 114.749 60.6759V60.6759Z" fill="white"/>
</g>
</g>
<defs>
<filter id="filter0_d" x="0" y="0" width="218" height="243.27" filterUnits="userSpaceOnUse" color-interpolation-filters="sRGB">
<feFlood flood-opacity="0" result="BackgroundImageFix"/>
<feColorMatrix in="SourceAlpha" type="matrix" values="0 0 0 0 0 0 0 0 0 0 0 0 0 0 0 0 0 0 127 0"/>
<feOffset dy="4"/>
<feGaussianBlur stdDeviation="2"/>
<feColorMatrix type="matrix" values="0 0 0 0 0 0 0 0 0 0 0 0 0 0 0 0 0 0 0.25 0"/>
<feBlend mode="normal" in2="BackgroundImageFix" result="effect1_dropShadow"/>
<feBlend mode="normal" in="SourceGraphic" in2="effect1_dropShadow" result="shape"/>
</filter>
<clipPath id="clip0">
<rect width="210" height="235.27" fill="white" transform="translate(4)"/>
</clipPath>
</defs>
</svg>
