<svg width="65" height="67" viewBox="0 0 65 67" fill="none" xmlns="http://www.w3.org/2000/svg">
<g filter="url(#filter0_d)">
<path d="M29.6833 28.2199L17.9347 41.8627L13.403 40.1865L9.25485 44.9986L9.75899 46.8913L13.003 43.1282L18.4937 44.5158L31.2998 29.6464L45.5471 13.1063L43.4429 7.78908L46.6869 4.0204L44.769 3.77063L40.6208 8.58278L42.873 12.9065L29.6833 28.2199Z" fill="white"/>
<path d="M34.1001 32.122L22.3516 45.7648L24.6037 50.0886L20.4556 54.9007L18.5431 54.651L21.7817 50.8823L19.6774 45.565L32.4836 30.6956L46.7309 14.1555L52.2216 15.5431L55.4656 11.7799L55.9697 13.6671L51.827 18.4848L47.2898 16.8086L34.1001 32.122Z" fill="white"/>
<path d="M8.31247 40.8026C6.78247 37.1784 5.99573 33.2771 6.00002 29.3355C6.00002 14.5105 17.8691 2.00001 32.5055 2.00001C35.3547 1.99759 38.1857 2.46051 40.8895 3.37095" stroke="white" stroke-width="3" stroke-miterlimit="10" stroke-linecap="round"/>
<path d="M56.6875 17.8685C58.2175 21.4926 59.0043 25.394 59 29.3355C59 44.1605 47.1309 56.671 32.4945 56.671C29.6471 56.6735 26.8179 56.2105 24.116 55.3001" stroke="white" stroke-width="3" stroke-miterlimit="10" stroke-linecap="round"/>
<path d="M25.6946 34.4303C24.8035 33.7243 24.0634 32.8431 23.5192 31.8399C22.9749 30.8368 22.6378 29.7326 22.5282 28.5941C22.4186 27.4556 22.5387 26.3065 22.8814 25.2163C23.2241 24.126 23.7821 23.1173 24.5218 22.2511C25.2615 21.3849 26.1675 20.6793 27.185 20.1768C28.2024 19.6744 29.3102 19.3856 30.4413 19.3279C31.5725 19.2703 32.7034 19.4449 33.7658 19.8413C34.8282 20.2377 35.7999 20.8476 36.6222 21.6342" stroke="white" stroke-width="4" stroke-miterlimit="10"/>
<path d="M39.4149 28.1548C39.9934 28.6589 40.4683 29.2734 40.8124 29.9633C41.1565 30.6532 41.3631 31.405 41.4203 32.1758C41.4776 32.9466 41.3844 33.7212 41.146 34.4555C40.9077 35.1898 40.5289 35.8694 40.0313 36.4554C39.5337 37.0414 38.927 37.5224 38.2459 37.8709C37.5647 38.2195 36.8225 38.4287 36.0615 38.4867C35.3005 38.5447 34.5357 38.4503 33.8108 38.2089C33.0858 37.9675 32.4149 37.5838 31.8363 37.0798" fill="white"/>
<path d="M49.5638 11.9906C50.9257 11.9906 52.0297 10.8724 52.0297 9.49296C52.0297 8.11354 50.9257 6.9953 49.5638 6.9953C48.202 6.9953 47.098 8.11354 47.098 9.49296C47.098 10.8724 48.202 11.9906 49.5638 11.9906Z" stroke="white" stroke-width="2" stroke-miterlimit="10"/>
<path d="M15.0415 51.9531C16.4034 51.9531 17.5074 50.8348 17.5074 49.4554C17.5074 48.076 16.4034 46.9577 15.0415 46.9577C13.6797 46.9577 12.5757 48.076 12.5757 49.4554C12.5757 50.8348 13.6797 51.9531 15.0415 51.9531Z" stroke="white" stroke-width="3" stroke-miterlimit="10"/>
</g>
<defs>
<filter id="filter0_d" x="0.5" y="0.5" width="64" height="65.671" filterUnits="userSpaceOnUse" color-interpolation-filters="sRGB">
<feFlood flood-opacity="0" result="BackgroundImageFix"/>
<feColorMatrix in="SourceAlpha" type="matrix" values="0 0 0 0 0 0 0 0 0 0 0 0 0 0 0 0 0 0 127 0"/>
<feOffset dy="4"/>
<feGaussianBlur stdDeviation="2"/>
<feColorMatrix type="matrix" values="0 0 0 0 0 0 0 0 0 0 0 0 0 0 0 0 0 0 0.25 0"/>
<feBlend mode="normal" in2="BackgroundImageFix" result="effect1_dropShadow"/>
<feBlend mode="normal" in="SourceGraphic" in2="effect1_dropShadow" result="shape"/>
</filter>
</defs>
</svg>
