<svg width="271" height="58" viewBox="0 0 271 58" fill="none" xmlns="http://www.w3.org/2000/svg">
<g filter="url(#filter0_d)">
<path d="M56.3257 15.1704H67.8379V19.0786H64.043V36H60.0215V19.0786H56.3257V15.1704ZM70.5708 15.1704H81.9414V19.0503H74.5073V22.8169H81.9414V26.626H74.5073V32.106H81.9414V36H70.5708V15.1704ZM104.796 18.8379L102.021 21.4858C100.132 19.494 98.0085 18.498 95.6484 18.498C93.6566 18.498 91.9762 19.1777 90.6074 20.5371C89.248 21.8965 88.5684 23.5721 88.5684 25.564C88.5684 26.9517 88.8704 28.1836 89.4746 29.2598C90.0788 30.3359 90.9331 31.1808 92.0376 31.7944C93.1421 32.408 94.3693 32.7148 95.7192 32.7148C96.8709 32.7148 97.9235 32.5024 98.877 32.0776C99.8304 31.6434 100.878 30.8599 102.021 29.7271L104.711 32.5308C103.172 34.0317 101.718 35.0749 100.35 35.6602C98.9808 36.236 97.4185 36.5239 95.6626 36.5239C92.4246 36.5239 89.772 35.4997 87.7046 33.4512C85.6466 31.3932 84.6177 28.7594 84.6177 25.5498C84.6177 23.473 85.085 21.6274 86.0195 20.0132C86.9635 18.3989 88.3088 17.1009 90.0552 16.1191C91.811 15.1374 93.6991 14.6465 95.7192 14.6465C97.4373 14.6465 99.0894 15.0099 100.675 15.7368C102.271 16.4637 103.644 17.4974 104.796 18.8379ZM108.265 15.1704H112.287V23.0293H119.253V15.1704H123.261V36H119.253V26.8667H112.287V36H108.265V15.1704ZM136.203 15.1704H146.54V19.0361H140.125V22.8169H146.54V26.626H140.125V36H136.203V15.1704ZM159.921 14.6465C162.867 14.6465 165.397 15.7132 167.511 17.8467C169.635 19.9801 170.697 22.5809 170.697 25.6489C170.697 28.6886 169.649 31.2611 167.554 33.3662C165.467 35.4714 162.933 36.5239 159.95 36.5239C156.825 36.5239 154.229 35.443 152.162 33.2812C150.094 31.1195 149.061 28.5518 149.061 25.5781C149.061 23.5863 149.542 21.7549 150.505 20.084C151.468 18.4131 152.789 17.0915 154.47 16.1191C156.16 15.1374 157.977 14.6465 159.921 14.6465ZM159.879 18.5264C157.953 18.5264 156.334 19.1966 155.022 20.5371C153.71 21.8776 153.054 23.5815 153.054 25.6489C153.054 27.9523 153.88 29.7743 155.532 31.1147C156.816 32.1626 158.288 32.6865 159.95 32.6865C161.828 32.6865 163.428 32.0068 164.75 30.6475C166.072 29.2881 166.732 27.6125 166.732 25.6206C166.732 23.6382 166.067 21.9626 164.736 20.5938C163.405 19.2155 161.786 18.5264 159.879 18.5264ZM174.705 15.1704H178.91C181.214 15.1704 182.851 15.3781 183.824 15.7935C184.806 16.1994 185.594 16.8791 186.188 17.8325C186.783 18.786 187.081 19.9141 187.081 21.2168C187.081 22.5856 186.75 23.7326 186.089 24.6577C185.438 25.5734 184.451 26.2673 183.13 26.7393L188.058 36H183.725L179.038 27.1782H178.669V36H174.705V15.1704ZM178.669 23.3125H179.916C181.181 23.3125 182.049 23.1473 182.521 22.8169C183.002 22.4865 183.243 21.939 183.243 21.1743C183.243 20.7212 183.125 20.3294 182.889 19.999C182.653 19.6592 182.337 19.4185 181.94 19.2769C181.544 19.1258 180.817 19.0503 179.76 19.0503H178.669V23.3125ZM210.487 18.5688L207.698 21.3301C205.932 19.4609 203.875 18.5264 201.524 18.5264C199.475 18.5264 197.757 19.2061 196.37 20.5654C194.991 21.9248 194.302 23.5768 194.302 25.5215C194.302 27.5322 195.02 29.2362 196.455 30.6333C197.889 32.0304 199.66 32.729 201.765 32.729C203.133 32.729 204.285 32.4411 205.22 31.8652C206.164 31.2894 206.924 30.3879 207.5 29.1606H201.467V25.4365H211.946L211.974 26.3145C211.974 28.1364 211.502 29.8639 210.558 31.4971C209.614 33.1302 208.392 34.3763 206.891 35.2354C205.39 36.0944 203.629 36.5239 201.609 36.5239C199.447 36.5239 197.517 36.0566 195.817 35.1221C194.128 34.1781 192.787 32.8376 191.796 31.1006C190.814 29.3636 190.323 27.4897 190.323 25.479C190.323 22.7225 191.234 20.3247 193.056 18.2856C195.218 15.8595 198.031 14.6465 201.496 14.6465C203.308 14.6465 205.003 14.9816 206.579 15.6519C207.91 16.2183 209.213 17.1906 210.487 18.5688ZM215.627 15.1704H226.998V19.0503H219.564V22.8169H226.998V26.626H219.564V32.106H226.998V36H215.627V15.1704ZM230.977 15.1704H235.183C237.486 15.1704 239.124 15.3781 240.096 15.7935C241.078 16.1994 241.866 16.8791 242.461 17.8325C243.056 18.786 243.353 19.9141 243.353 21.2168C243.353 22.5856 243.023 23.7326 242.362 24.6577C241.71 25.5734 240.724 26.2673 239.402 26.7393L244.33 36H239.997L235.31 27.1782H234.942V36H230.977V15.1704ZM234.942 23.3125H236.188C237.453 23.3125 238.321 23.1473 238.793 22.8169C239.275 22.4865 239.516 21.939 239.516 21.1743C239.516 20.7212 239.398 20.3294 239.162 19.999C238.926 19.6592 238.609 19.4185 238.213 19.2769C237.816 19.1258 237.09 19.0503 236.032 19.0503H234.942V23.3125ZM246.043 15.1704H250.306L254.186 22.647L258.037 15.1704H262.243L256.154 26.98V36H252.161V26.98L246.043 15.1704Z" fill="white"/>
<path d="M25.2148 25.2728L15.683 36.3415L12.0063 34.9815L8.64079 38.8857L9.04981 40.4213L11.6817 37.3682L16.1364 38.494L26.5263 26.4301L38.0855 13.0108L36.3783 8.69684L39.0102 5.63922L37.4542 5.43658L34.0887 9.34079L35.9159 12.8487L25.2148 25.2728Z" fill="white"/>
<path d="M28.7982 28.4384L19.2664 39.5071L21.0936 43.0151L17.7281 46.9193L16.1765 46.7166L18.804 43.659L17.0968 39.345L27.4867 27.2811L39.0458 13.8618L43.5005 14.9876L46.1325 11.9345L46.5415 13.4655L43.1804 17.3743L39.4993 16.0143L28.7982 28.4384Z" fill="white"/>
<path d="M7.87615 35.4814C6.63483 32.541 5.99653 29.3758 6.00001 26.1779C6.00001 14.1501 15.6297 4.00001 27.5045 4.00001C29.8161 3.99804 32.113 4.37362 34.3066 5.11228" stroke="white" stroke-width="3" stroke-miterlimit="10" stroke-linecap="round"/>
<path d="M47.1238 16.8745C48.3652 19.8148 49.0035 22.98 49 26.1779C49 38.2057 39.3703 48.3558 27.4956 48.3558C25.1854 48.3577 22.89 47.9821 20.6979 47.2435" stroke="white" stroke-width="3" stroke-miterlimit="10" stroke-linecap="round"/>
<path d="M21.9786 30.3113C21.2557 29.7385 20.6553 29.0236 20.2137 28.2097C19.7721 27.3959 19.4986 26.5 19.4097 25.5763C19.3207 24.6526 19.4182 23.7203 19.6962 22.8358C19.9743 21.9513 20.427 21.1329 21.0272 20.4301C21.6273 19.7273 22.3623 19.1548 23.1878 18.7472C24.0133 18.3395 24.9121 18.1053 25.8298 18.0585C26.7475 18.0117 27.665 18.1534 28.527 18.475C29.3889 18.7966 30.1773 19.2914 30.8444 19.9296" stroke="white" stroke-width="4" stroke-miterlimit="10"/>
<path d="M33.1103 25.22C33.5797 25.6289 33.9649 26.1275 34.2441 26.6872C34.5233 27.247 34.6909 27.8569 34.7373 28.4823C34.7838 29.1076 34.7082 29.7361 34.5148 30.3319C34.3214 30.9276 34.0141 31.479 33.6104 31.9544C33.2067 32.4299 32.7145 32.8201 32.1618 33.1029C31.6092 33.3856 31.007 33.5554 30.3896 33.6025C29.7722 33.6495 29.1517 33.5729 28.5636 33.3771C27.9754 33.1812 27.4311 32.8699 26.9617 32.461" fill="white"/>
<path d="M41.3443 12.1057C42.4492 12.1057 43.3449 11.1984 43.3449 10.0793C43.3449 8.96014 42.4492 8.05289 41.3443 8.05289C40.2394 8.05289 39.3437 8.96014 39.3437 10.0793C39.3437 11.1984 40.2394 12.1057 41.3443 12.1057Z" stroke="white" stroke-width="2" stroke-miterlimit="10"/>
<path d="M13.3356 44.5281C14.4405 44.5281 15.3362 43.6209 15.3362 42.5017C15.3362 41.3825 14.4405 40.4753 13.3356 40.4753C12.2307 40.4753 11.335 41.3825 11.335 42.5017C11.335 43.6209 12.2307 44.5281 13.3356 44.5281Z" stroke="white" stroke-width="3" stroke-miterlimit="10"/>
</g>
<defs>
<filter id="filter0_d" x="-4" y="0" width="279" height="61" filterUnits="userSpaceOnUse" color-interpolation-filters="sRGB">
<feFlood flood-opacity="0" result="BackgroundImageFix"/>
<feColorMatrix in="SourceAlpha" type="matrix" values="0 0 0 0 0 0 0 0 0 0 0 0 0 0 0 0 0 0 127 0"/>
<feOffset dy="4"/>
<feGaussianBlur stdDeviation="2"/>
<feColorMatrix type="matrix" values="0 0 0 0 0 0 0 0 0 0 0 0 0 0 0 0 0 0 0.25 0"/>
<feBlend mode="normal" in2="BackgroundImageFix" result="effect1_dropShadow"/>
<feBlend mode="normal" in="SourceGraphic" in2="effect1_dropShadow" result="shape"/>
</filter>
</defs>
</svg>
