<svg width="271" height="53" viewBox="0 0 271 53" fill="none" xmlns="http://www.w3.org/2000/svg">
<g filter="url(#filter0_d)">
<g clip-path="url(#clip0)">
<path d="M23.9986 43.7413C32.5803 33.5787 39.2304 23.3173 43.1705 12.9387C38.5288 9.00266 32.4127 4.73866 23.9986 0.746666C15.5872 4.74666 9.4712 9.01333 4.82664 12.9387C8.76955 23.3173 15.4168 33.5787 23.9986 43.7413Z" stroke="white" stroke-width="3" stroke-miterlimit="10"/>
<path d="M24.8818 35.6572L25.1451 11.5579L25.0951 11.5573L25.1075 11.5089C24.3833 11.3235 23.6195 11.3235 22.8953 11.5089L22.8573 11.5186L22.8577 11.5579L23.121 35.6359L21.4294 34.7274V30.3147V30.293L21.4137 30.2782L20.813 29.7143L20.7903 11.6026L20.7902 11.5503L20.738 11.5527C17.4402 11.705 14.3232 12.4281 12.0313 13.1128C10.8852 13.4551 9.945 13.788 9.29124 14.0354C8.99577 14.1472 8.75879 14.2415 8.58771 14.3114C11.8711 11.6522 15.1538 9.94569 17.6374 8.89908C18.9128 8.36164 19.9772 7.99828 20.7226 7.76934C21.0953 7.65487 21.3882 7.57401 21.5878 7.5218C21.6876 7.49569 21.764 7.47675 21.8155 7.46435C21.8214 7.46292 21.827 7.46158 21.8322 7.46033V8.81599V8.86599H21.8822H26.1177H26.1677V8.81599V7.46032C26.173 7.46158 26.1786 7.46292 26.1845 7.46435C26.236 7.47675 26.3125 7.49569 26.4123 7.5218C26.612 7.57401 26.905 7.65487 27.2778 7.76934C28.0234 7.99829 29.0881 8.36164 30.3636 8.89908C32.8479 9.9458 36.131 11.6526 39.4134 14.3122C39.2423 14.2425 39.005 14.1483 38.7091 14.0367C38.0556 13.7901 37.1157 13.4583 35.9697 13.1171C33.6781 12.4347 30.5612 11.7143 27.262 11.5634L27.2098 11.561L27.2097 11.6133L27.1898 29.7249L26.5864 30.2888L26.5705 30.3036V30.3253V34.7488L24.8818 35.6572Z" fill="white" stroke="#02006C" stroke-width="0.1"/>
</g>
<path d="M56.3257 15.1704H67.8379V19.0786H64.043V36H60.0215V19.0786H56.3257V15.1704ZM70.5708 15.1704H81.9414V19.0503H74.5073V22.8169H81.9414V26.626H74.5073V32.106H81.9414V36H70.5708V15.1704ZM104.796 18.8379L102.021 21.4858C100.132 19.494 98.0085 18.498 95.6484 18.498C93.6566 18.498 91.9762 19.1777 90.6074 20.5371C89.248 21.8965 88.5684 23.5721 88.5684 25.564C88.5684 26.9517 88.8704 28.1836 89.4746 29.2598C90.0788 30.3359 90.9331 31.1808 92.0376 31.7944C93.1421 32.408 94.3693 32.7148 95.7192 32.7148C96.8709 32.7148 97.9235 32.5024 98.877 32.0776C99.8304 31.6434 100.878 30.8599 102.021 29.7271L104.711 32.5308C103.172 34.0317 101.718 35.0749 100.35 35.6602C98.9808 36.236 97.4185 36.5239 95.6626 36.5239C92.4246 36.5239 89.772 35.4997 87.7046 33.4512C85.6466 31.3932 84.6177 28.7594 84.6177 25.5498C84.6177 23.473 85.085 21.6274 86.0195 20.0132C86.9635 18.3989 88.3088 17.1009 90.0552 16.1191C91.811 15.1374 93.6991 14.6465 95.7192 14.6465C97.4373 14.6465 99.0894 15.0099 100.675 15.7368C102.271 16.4637 103.644 17.4974 104.796 18.8379ZM108.265 15.1704H112.287V23.0293H119.253V15.1704H123.261V36H119.253V26.8667H112.287V36H108.265V15.1704ZM136.203 15.1704H146.54V19.0361H140.125V22.8169H146.54V26.626H140.125V36H136.203V15.1704ZM159.921 14.6465C162.867 14.6465 165.397 15.7132 167.511 17.8467C169.635 19.9801 170.697 22.5809 170.697 25.6489C170.697 28.6886 169.649 31.2611 167.554 33.3662C165.467 35.4714 162.933 36.5239 159.95 36.5239C156.825 36.5239 154.229 35.443 152.162 33.2812C150.094 31.1195 149.061 28.5518 149.061 25.5781C149.061 23.5863 149.542 21.7549 150.505 20.084C151.468 18.4131 152.789 17.0915 154.47 16.1191C156.16 15.1374 157.977 14.6465 159.921 14.6465ZM159.879 18.5264C157.953 18.5264 156.334 19.1966 155.022 20.5371C153.71 21.8776 153.054 23.5815 153.054 25.6489C153.054 27.9523 153.88 29.7743 155.532 31.1147C156.816 32.1626 158.288 32.6865 159.95 32.6865C161.828 32.6865 163.428 32.0068 164.75 30.6475C166.072 29.2881 166.732 27.6125 166.732 25.6206C166.732 23.6382 166.067 21.9626 164.736 20.5938C163.405 19.2155 161.786 18.5264 159.879 18.5264ZM174.705 15.1704H178.91C181.214 15.1704 182.851 15.3781 183.824 15.7935C184.806 16.1994 185.594 16.8791 186.188 17.8325C186.783 18.786 187.081 19.9141 187.081 21.2168C187.081 22.5856 186.75 23.7326 186.089 24.6577C185.438 25.5734 184.451 26.2673 183.13 26.7393L188.058 36H183.725L179.038 27.1782H178.669V36H174.705V15.1704ZM178.669 23.3125H179.916C181.181 23.3125 182.049 23.1473 182.521 22.8169C183.002 22.4865 183.243 21.939 183.243 21.1743C183.243 20.7212 183.125 20.3294 182.889 19.999C182.653 19.6592 182.337 19.4185 181.94 19.2769C181.544 19.1258 180.817 19.0503 179.76 19.0503H178.669V23.3125ZM210.487 18.5688L207.698 21.3301C205.932 19.4609 203.875 18.5264 201.524 18.5264C199.475 18.5264 197.757 19.2061 196.37 20.5654C194.991 21.9248 194.302 23.5768 194.302 25.5215C194.302 27.5322 195.02 29.2362 196.455 30.6333C197.889 32.0304 199.66 32.729 201.765 32.729C203.133 32.729 204.285 32.4411 205.22 31.8652C206.164 31.2894 206.924 30.3879 207.5 29.1606H201.467V25.4365H211.946L211.974 26.3145C211.974 28.1364 211.502 29.8639 210.558 31.4971C209.614 33.1302 208.392 34.3763 206.891 35.2354C205.39 36.0944 203.629 36.5239 201.609 36.5239C199.447 36.5239 197.517 36.0566 195.817 35.1221C194.128 34.1781 192.787 32.8376 191.796 31.1006C190.814 29.3636 190.323 27.4897 190.323 25.479C190.323 22.7225 191.234 20.3247 193.056 18.2856C195.218 15.8595 198.031 14.6465 201.496 14.6465C203.308 14.6465 205.003 14.9816 206.579 15.6519C207.91 16.2183 209.213 17.1906 210.487 18.5688ZM215.627 15.1704H226.998V19.0503H219.564V22.8169H226.998V26.626H219.564V32.106H226.998V36H215.627V15.1704ZM230.977 15.1704H235.183C237.486 15.1704 239.124 15.3781 240.096 15.7935C241.078 16.1994 241.866 16.8791 242.461 17.8325C243.056 18.786 243.353 19.9141 243.353 21.2168C243.353 22.5856 243.023 23.7326 242.362 24.6577C241.71 25.5734 240.724 26.2673 239.402 26.7393L244.33 36H239.997L235.31 27.1782H234.942V36H230.977V15.1704ZM234.942 23.3125H236.188C237.453 23.3125 238.321 23.1473 238.793 22.8169C239.275 22.4865 239.516 21.939 239.516 21.1743C239.516 20.7212 239.398 20.3294 239.162 19.999C238.926 19.6592 238.609 19.4185 238.213 19.2769C237.816 19.1258 237.09 19.0503 236.032 19.0503H234.942V23.3125ZM246.043 15.1704H250.306L254.186 22.647L258.037 15.1704H262.243L256.154 26.98V36H252.161V26.98L246.043 15.1704Z" fill="white"/>
<path d="M56.3257 15.1704V14.9704H56.1257V15.1704H56.3257ZM67.8379 15.1704H68.0379V14.9704H67.8379V15.1704ZM67.8379 19.0786V19.2786H68.0379V19.0786H67.8379ZM64.043 19.0786V18.8786H63.843V19.0786H64.043ZM64.043 36V36.2H64.243V36H64.043ZM60.0215 36H59.8215V36.2H60.0215V36ZM60.0215 19.0786H60.2215V18.8786H60.0215V19.0786ZM56.3257 19.0786H56.1257V19.2786H56.3257V19.0786ZM56.3257 15.3704H67.8379V14.9704H56.3257V15.3704ZM67.6379 15.1704V19.0786H68.0379V15.1704H67.6379ZM67.8379 18.8786H64.043V19.2786H67.8379V18.8786ZM63.843 19.0786V36H64.243V19.0786H63.843ZM64.043 35.8H60.0215V36.2H64.043V35.8ZM60.2215 36V19.0786H59.8215V36H60.2215ZM60.0215 18.8786H56.3257V19.2786H60.0215V18.8786ZM56.5257 19.0786V15.1704H56.1257V19.0786H56.5257ZM70.5708 15.1704V14.9704H70.3708V15.1704H70.5708ZM81.9414 15.1704H82.1414V14.9704H81.9414V15.1704ZM81.9414 19.0503V19.2503H82.1414V19.0503H81.9414ZM74.5073 19.0503V18.8503H74.3073V19.0503H74.5073ZM74.5073 22.8169H74.3073V23.0169H74.5073V22.8169ZM81.9414 22.8169H82.1414V22.6169H81.9414V22.8169ZM81.9414 26.626V26.826H82.1414V26.626H81.9414ZM74.5073 26.626V26.426H74.3073V26.626H74.5073ZM74.5073 32.106H74.3073V32.306H74.5073V32.106ZM81.9414 32.106H82.1414V31.906H81.9414V32.106ZM81.9414 36V36.2H82.1414V36H81.9414ZM70.5708 36H70.3708V36.2H70.5708V36ZM70.5708 15.3704H81.9414V14.9704H70.5708V15.3704ZM81.7414 15.1704V19.0503H82.1414V15.1704H81.7414ZM81.9414 18.8503H74.5073V19.2503H81.9414V18.8503ZM74.3073 19.0503V22.8169H74.7073V19.0503H74.3073ZM74.5073 23.0169H81.9414V22.6169H74.5073V23.0169ZM81.7414 22.8169V26.626H82.1414V22.8169H81.7414ZM81.9414 26.426H74.5073V26.826H81.9414V26.426ZM74.3073 26.626V32.106H74.7073V26.626H74.3073ZM74.5073 32.306H81.9414V31.906H74.5073V32.306ZM81.7414 32.106V36H82.1414V32.106H81.7414ZM81.9414 35.8H70.5708V36.2H81.9414V35.8ZM70.7708 36V15.1704H70.3708V36H70.7708ZM104.796 18.8379L104.934 18.9826L105.071 18.8515L104.948 18.7076L104.796 18.8379ZM102.021 21.4858L101.875 21.6234L102.013 21.7691L102.159 21.6305L102.021 21.4858ZM90.6074 20.5371L90.4665 20.3952L90.466 20.3957L90.6074 20.5371ZM98.877 32.0776L98.9584 32.2603L98.9598 32.2596L98.877 32.0776ZM102.021 29.7271L102.165 29.5886L102.024 29.4419L101.88 29.585L102.021 29.7271ZM104.711 32.5308L104.851 32.6739L104.993 32.5354L104.855 32.3923L104.711 32.5308ZM100.35 35.6602L100.427 35.8445L100.428 35.8441L100.35 35.6602ZM87.7046 33.4512L87.5632 33.5926L87.5638 33.5932L87.7046 33.4512ZM86.0195 20.0132L85.8469 19.9122L85.8464 19.913L86.0195 20.0132ZM90.0552 16.1191L89.9576 15.9446L89.9572 15.9448L90.0552 16.1191ZM100.675 15.7368L100.592 15.9186L100.592 15.9188L100.675 15.7368ZM104.658 18.6932L101.882 21.3411L102.159 21.6305L104.934 18.9826L104.658 18.6932ZM102.166 21.3483C100.247 19.3236 98.0724 18.298 95.6484 18.298V18.698C97.9445 18.698 100.018 19.6643 101.875 21.6234L102.166 21.3483ZM95.6484 18.298C93.6057 18.298 91.8741 18.9973 90.4665 20.3952L90.7484 20.679C92.0784 19.3582 93.7075 18.698 95.6484 18.698V18.298ZM90.466 20.3957C89.0676 21.7941 88.3684 23.5212 88.3684 25.564H88.7684C88.7684 23.623 89.4285 21.9989 90.7488 20.6785L90.466 20.3957ZM88.3684 25.564C88.3684 26.9816 88.6773 28.248 89.3002 29.3577L89.649 29.1619C89.0636 28.1192 88.7684 26.9217 88.7684 25.564H88.3684ZM89.3002 29.3577C89.923 30.4669 90.8044 31.3381 91.9405 31.9693L92.1347 31.6196C91.0618 31.0235 90.2346 30.2049 89.649 29.1619L89.3002 29.3577ZM91.9405 31.9693C93.0767 32.6005 94.3377 32.9148 95.7192 32.9148V32.5148C94.4009 32.5148 93.2075 32.2156 92.1347 31.6196L91.9405 31.9693ZM95.7192 32.9148C96.8961 32.9148 97.9767 32.6977 98.9583 32.2603L98.7956 31.8949C97.8703 32.3072 96.8458 32.5148 95.7192 32.5148V32.9148ZM98.9598 32.2596C99.9431 31.8118 101.01 31.0106 102.161 29.8691L101.88 29.585C100.746 30.7092 99.7177 31.475 98.7941 31.8956L98.9598 32.2596ZM101.876 29.8655L104.567 32.6692L104.855 32.3923L102.165 29.5886L101.876 29.8655ZM104.571 32.3876C103.043 33.8783 101.609 34.904 100.271 35.4763L100.428 35.8441C101.827 35.2458 103.301 34.1851 104.851 32.6739L104.571 32.3876ZM100.272 35.4758C98.9318 36.0396 97.3966 36.3239 95.6626 36.3239V36.7239C97.4403 36.7239 99.0297 36.4324 100.427 35.8445L100.272 35.4758ZM95.6626 36.3239C92.4709 36.3239 89.8709 35.3162 87.8454 33.3091L87.5638 33.5932C89.673 35.6832 92.3784 36.7239 95.6626 36.7239V36.3239ZM87.846 33.3098C85.8296 31.2933 84.8177 28.7124 84.8177 25.5498H84.4177C84.4177 28.8065 85.4637 31.4931 87.5632 33.5926L87.846 33.3098ZM84.8177 25.5498C84.8177 23.5041 85.2776 21.6938 86.1926 20.1134L85.8464 19.913C84.8923 21.561 84.4177 23.4419 84.4177 25.5498H84.8177ZM86.1922 20.1141C87.117 18.5327 88.4354 17.2591 90.1532 16.2935L89.9572 15.9448C88.1821 16.9427 86.8101 18.2651 85.8469 19.9122L86.1922 20.1141ZM90.1528 16.2937C91.8787 15.3287 93.7331 14.8465 95.7192 14.8465V14.4465C93.665 14.4465 91.7434 14.9461 89.9576 15.9446L90.1528 16.2937ZM95.7192 14.8465C97.4081 14.8465 99.0318 15.2035 100.592 15.9186L100.759 15.555C99.147 14.8163 97.4666 14.4465 95.7192 14.4465V14.8465ZM100.592 15.9188C102.161 16.6336 103.511 17.6496 104.644 18.9682L104.948 18.7076C103.777 17.3452 102.38 16.2938 100.758 15.5548L100.592 15.9188ZM108.265 15.1704V14.9704H108.065V15.1704H108.265ZM112.287 15.1704H112.487V14.9704H112.287V15.1704ZM112.287 23.0293H112.087V23.2293H112.287V23.0293ZM119.253 23.0293V23.2293H119.453V23.0293H119.253ZM119.253 15.1704V14.9704H119.053V15.1704H119.253ZM123.261 15.1704H123.461V14.9704H123.261V15.1704ZM123.261 36V36.2H123.461V36H123.261ZM119.253 36H119.053V36.2H119.253V36ZM119.253 26.8667H119.453V26.6667H119.253V26.8667ZM112.287 26.8667V26.6667H112.087V26.8667H112.287ZM112.287 36V36.2H112.487V36H112.287ZM108.265 36H108.065V36.2H108.265V36ZM108.265 15.3704H112.287V14.9704H108.265V15.3704ZM112.087 15.1704V23.0293H112.487V15.1704H112.087ZM112.287 23.2293H119.253V22.8293H112.287V23.2293ZM119.453 23.0293V15.1704H119.053V23.0293H119.453ZM119.253 15.3704H123.261V14.9704H119.253V15.3704ZM123.061 15.1704V36H123.461V15.1704H123.061ZM123.261 35.8H119.253V36.2H123.261V35.8ZM119.453 36V26.8667H119.053V36H119.453ZM119.253 26.6667H112.287V27.0667H119.253V26.6667ZM112.087 26.8667V36H112.487V26.8667H112.087ZM112.287 35.8H108.265V36.2H112.287V35.8ZM108.465 36V15.1704H108.065V36H108.465ZM136.203 15.1704V14.9704H136.003V15.1704H136.203ZM146.54 15.1704H146.74V14.9704H146.54V15.1704ZM146.54 19.0361V19.2361H146.74V19.0361H146.54ZM140.125 19.0361V18.8361H139.925V19.0361H140.125ZM140.125 22.8169H139.925V23.0169H140.125V22.8169ZM146.54 22.8169H146.74V22.6169H146.54V22.8169ZM146.54 26.626V26.826H146.74V26.626H146.54ZM140.125 26.626V26.426H139.925V26.626H140.125ZM140.125 36V36.2H140.325V36H140.125ZM136.203 36H136.003V36.2H136.203V36ZM136.203 15.3704H146.54V14.9704H136.203V15.3704ZM146.34 15.1704V19.0361H146.74V15.1704H146.34ZM146.54 18.8361H140.125V19.2361H146.54V18.8361ZM139.925 19.0361V22.8169H140.325V19.0361H139.925ZM140.125 23.0169H146.54V22.6169H140.125V23.0169ZM146.34 22.8169V26.626H146.74V22.8169H146.34ZM146.54 26.426H140.125V26.826H146.54V26.426ZM139.925 26.626V36H140.325V26.626H139.925ZM140.125 35.8H136.203V36.2H140.125V35.8ZM136.403 36V15.1704H136.003V36H136.403ZM167.511 17.8467L167.369 17.9875L167.369 17.9878L167.511 17.8467ZM167.554 33.3662L167.412 33.2251L167.412 33.2254L167.554 33.3662ZM154.47 16.1191L154.57 16.2922L154.57 16.2921L154.47 16.1191ZM155.532 31.1147L155.658 30.9598L155.658 30.9594L155.532 31.1147ZM164.736 20.5938L164.592 20.7327L164.592 20.7332L164.736 20.5938ZM159.921 14.8465C162.812 14.8465 165.291 15.8911 167.369 17.9875L167.653 17.7059C165.502 15.5354 162.921 14.4465 159.921 14.4465V14.8465ZM167.369 17.9878C169.455 20.083 170.497 22.6326 170.497 25.6489H170.897C170.897 22.5291 169.815 19.8773 167.653 17.7056L167.369 17.9878ZM170.497 25.6489C170.497 28.6371 169.469 31.1584 167.412 33.2251L167.695 33.5073C169.829 31.3637 170.897 28.7401 170.897 25.6489H170.497ZM167.412 33.2254C165.363 35.2924 162.88 36.3239 159.95 36.3239V36.7239C162.986 36.7239 165.572 35.6503 167.696 33.507L167.412 33.2254ZM159.95 36.3239C156.877 36.3239 154.334 35.2634 152.306 33.143L152.017 33.4195C154.124 35.6227 156.773 36.7239 159.95 36.7239V36.3239ZM152.306 33.143C150.274 31.0182 149.261 28.4999 149.261 25.5781H148.861C148.861 28.6036 149.914 31.2207 152.017 33.4195L152.306 33.143ZM149.261 25.5781C149.261 23.6201 149.733 21.8233 150.678 20.1838L150.332 19.9841C149.351 21.6864 148.861 23.5524 148.861 25.5781H149.261ZM150.678 20.1838C151.623 18.5436 152.92 17.2471 154.57 16.2922L154.37 15.946C152.659 16.9358 151.312 18.2826 150.332 19.9841L150.678 20.1838ZM154.57 16.2921C156.23 15.3279 158.012 14.8465 159.921 14.8465V14.4465C157.941 14.4465 156.089 14.9468 154.369 15.9462L154.57 16.2921ZM159.879 18.3264C157.901 18.3264 156.23 19.0171 154.879 20.3972L155.165 20.677C156.438 19.3761 158.005 18.7264 159.879 18.7264V18.3264ZM154.879 20.3972C153.526 21.7791 152.854 23.5351 152.854 25.6489H153.254C153.254 23.628 153.893 21.9762 155.165 20.677L154.879 20.3972ZM152.854 25.6489C152.854 28.0069 153.703 29.8881 155.406 31.2701L155.658 30.9594C154.057 29.6604 153.254 27.8977 153.254 25.6489H152.854ZM155.405 31.2697C156.725 32.3468 158.242 32.8865 159.95 32.8865V32.4865C158.334 32.4865 156.906 31.9784 155.658 30.9598L155.405 31.2697ZM159.95 32.8865C161.883 32.8865 163.535 32.1846 164.893 30.7869L164.607 30.508C163.322 31.8291 161.774 32.4865 159.95 32.4865V32.8865ZM164.893 30.7869C166.253 29.3881 166.932 27.6616 166.932 25.6206H166.532C166.532 27.5633 165.89 29.188 164.607 30.508L164.893 30.7869ZM166.932 25.6206C166.932 23.5883 166.248 21.862 164.879 20.4543L164.592 20.7332C165.886 22.0631 166.532 23.688 166.532 25.6206H166.932ZM164.88 20.4548C163.511 19.0377 161.84 18.3264 159.879 18.3264V18.7264C161.731 18.7264 163.298 19.3932 164.592 20.7327L164.88 20.4548ZM174.705 15.1704V14.9704H174.505V15.1704H174.705ZM183.824 15.7935L183.745 15.9774L183.747 15.9783L183.824 15.7935ZM186.089 24.6577L185.927 24.5415L185.926 24.5418L186.089 24.6577ZM183.13 26.7393L183.063 26.5509L182.845 26.6288L182.953 26.8332L183.13 26.7393ZM188.058 36V36.2H188.391L188.234 35.9061L188.058 36ZM183.725 36L183.548 36.0938L183.604 36.2H183.725V36ZM179.038 27.1782L179.214 27.0844L179.158 26.9782H179.038V27.1782ZM178.669 27.1782V26.9782H178.469V27.1782H178.669ZM178.669 36V36.2H178.869V36H178.669ZM174.705 36H174.505V36.2H174.705V36ZM178.669 23.3125H178.469V23.5125H178.669V23.3125ZM182.521 22.8169L182.408 22.652L182.406 22.653L182.521 22.8169ZM182.889 19.999L182.725 20.1131L182.726 20.1153L182.889 19.999ZM181.94 19.2769L181.869 19.4638L181.873 19.4652L181.94 19.2769ZM178.669 19.0503V18.8503H178.469V19.0503H178.669ZM174.705 15.3704H178.91V14.9704H174.705V15.3704ZM178.91 15.3704C181.211 15.3704 182.813 15.5792 183.745 15.9774L183.902 15.6095C182.89 15.177 181.216 14.9704 178.91 14.9704V15.3704ZM183.747 15.9783C184.688 16.3673 185.445 17.0182 186.019 17.9384L186.358 17.7267C185.743 16.74 184.923 16.0315 183.9 15.6086L183.747 15.9783ZM186.019 17.9384C186.591 18.8553 186.881 19.9454 186.881 21.2168H187.281C187.281 19.8827 186.976 18.7167 186.358 17.7267L186.019 17.9384ZM186.881 21.2168C186.881 22.5526 186.559 23.6567 185.927 24.5415L186.252 24.774C186.942 23.8085 187.281 22.6186 187.281 21.2168H186.881ZM185.926 24.5418C185.304 25.4166 184.355 26.0892 183.063 26.5509L183.197 26.9276C184.548 26.4453 185.572 25.7302 186.252 24.7736L185.926 24.5418ZM182.953 26.8332L187.881 36.0939L188.234 35.9061L183.306 26.6453L182.953 26.8332ZM188.058 35.8H183.725V36.2H188.058V35.8ZM183.901 35.9062L179.214 27.0844L178.861 27.2721L183.548 36.0938L183.901 35.9062ZM179.038 26.9782H178.669V27.3782H179.038V26.9782ZM178.469 27.1782V36H178.869V27.1782H178.469ZM178.669 35.8H174.705V36.2H178.669V35.8ZM174.905 36V15.1704H174.505V36H174.905ZM178.669 23.5125H179.916V23.1125H178.669V23.5125ZM179.916 23.5125C180.556 23.5125 181.102 23.4708 181.553 23.3851C182.002 23.2997 182.367 23.1685 182.636 22.9807L182.406 22.653C182.203 22.7957 181.898 22.9123 181.478 22.9921C181.06 23.0716 180.54 23.1125 179.916 23.1125V23.5125ZM182.634 22.9818C183.186 22.6029 183.443 21.9822 183.443 21.1743H183.043C183.043 21.8957 182.819 22.3701 182.408 22.652L182.634 22.9818ZM183.443 21.1743C183.443 20.6846 183.315 20.251 183.052 19.8828L182.726 20.1153C182.935 20.4079 183.043 20.7578 183.043 21.1743H183.443ZM183.053 19.8849C182.793 19.5102 182.443 19.2439 182.008 19.0885L181.873 19.4652C182.231 19.593 182.513 19.8082 182.725 20.1131L183.053 19.8849ZM182.012 19.09C181.577 18.9243 180.816 18.8503 179.76 18.8503V19.2503C180.819 19.2503 181.511 19.3273 181.869 19.4638L182.012 19.09ZM179.76 18.8503H178.669V19.2503H179.76V18.8503ZM178.469 19.0503V23.3125H178.869V19.0503H178.469ZM210.487 18.5688L210.628 18.711L210.765 18.575L210.634 18.4331L210.487 18.5688ZM207.698 21.3301L207.552 21.4674L207.693 21.6163L207.838 21.4722L207.698 21.3301ZM196.37 20.5654L196.23 20.4226L196.229 20.423L196.37 20.5654ZM196.455 30.6333L196.315 30.7766L196.455 30.6333ZM205.22 31.8652L205.116 31.6945L205.115 31.695L205.22 31.8652ZM207.5 29.1606L207.681 29.2456L207.814 28.9606H207.5V29.1606ZM201.467 29.1606H201.267V29.3606H201.467V29.1606ZM201.467 25.4365V25.2365H201.267V25.4365H201.467ZM211.946 25.4365L212.146 25.4301L212.139 25.2365H211.946V25.4365ZM211.974 26.3145H212.174L212.174 26.308L211.974 26.3145ZM210.558 31.4971L210.385 31.397L210.558 31.4971ZM195.817 35.1221L195.72 35.2967L195.721 35.2973L195.817 35.1221ZM191.796 31.1006L191.622 31.199L191.622 31.1997L191.796 31.1006ZM193.056 18.2856L193.205 18.4189L193.205 18.4187L193.056 18.2856ZM206.579 15.6519L206.657 15.4678L206.657 15.4678L206.579 15.6519ZM210.347 18.4267L207.557 21.1879L207.838 21.4722L210.628 18.711L210.347 18.4267ZM207.843 21.1928C206.044 19.2878 203.935 18.3264 201.524 18.3264V18.7264C203.814 18.7264 205.821 19.6341 207.552 21.4674L207.843 21.1928ZM201.524 18.3264C199.426 18.3264 197.657 19.0244 196.23 20.4226L196.51 20.7083C197.858 19.3877 199.525 18.7264 201.524 18.7264V18.3264ZM196.229 20.423C194.813 21.8202 194.102 23.5236 194.102 25.5215H194.502C194.502 23.6301 195.17 22.0294 196.51 20.7078L196.229 20.423ZM194.102 25.5215C194.102 27.586 194.841 29.3416 196.315 30.7766L196.594 30.49C195.198 29.1307 194.502 27.4785 194.502 25.5215H194.102ZM196.315 30.7766C197.789 32.2121 199.61 32.929 201.765 32.929V32.529C199.709 32.529 197.99 31.8488 196.594 30.49L196.315 30.7766ZM201.765 32.929C203.161 32.929 204.352 32.6351 205.325 32.0355L205.115 31.695C204.219 32.2471 203.106 32.529 201.765 32.529V32.929ZM205.324 32.036C206.308 31.4355 207.092 30.5003 207.681 29.2456L207.318 29.0757C206.755 30.2755 206.019 31.1433 205.116 31.6945L205.324 32.036ZM207.5 28.9606H201.467V29.3606H207.5V28.9606ZM201.667 29.1606V25.4365H201.267V29.1606H201.667ZM201.467 25.6365H211.946V25.2365H201.467V25.6365ZM211.746 25.443L211.774 26.3209L212.174 26.308L212.146 25.4301L211.746 25.443ZM211.774 26.3145C211.774 28.1 211.312 29.7931 210.385 31.397L210.731 31.5972C211.692 29.9347 212.174 28.1728 212.174 26.3145H211.774ZM210.385 31.397C209.457 33.0024 208.259 34.2218 206.791 35.0618L206.99 35.4089C208.524 34.5308 209.771 33.258 210.731 31.5972L210.385 31.397ZM206.791 35.0618C205.325 35.9008 203.6 36.3239 201.609 36.3239V36.7239C203.658 36.7239 205.454 36.288 206.99 35.4089L206.791 35.0618ZM201.609 36.3239C199.477 36.3239 197.58 35.8634 195.914 34.9468L195.721 35.2973C197.453 36.2499 199.417 36.7239 201.609 36.7239V36.3239ZM195.915 34.9475C194.258 34.0218 192.943 32.7079 191.97 31.0015L191.622 31.1997C192.631 32.9672 193.997 34.3343 195.72 35.2967L195.915 34.9475ZM191.97 31.0022C191.005 29.2955 190.523 27.4555 190.523 25.479H190.123C190.123 27.524 190.623 29.4318 191.622 31.199L191.97 31.0022ZM190.523 25.479C190.523 22.7712 191.416 20.421 193.205 18.4189L192.907 18.1524C191.052 20.2284 190.123 22.6738 190.123 25.479H190.523ZM193.205 18.4187C195.327 16.0383 198.084 14.8465 201.496 14.8465V14.4465C197.978 14.4465 195.109 15.6808 192.907 18.1526L193.205 18.4187ZM201.496 14.8465C203.283 14.8465 204.951 15.1768 206.501 15.8359L206.657 15.4678C205.055 14.7864 203.333 14.4465 201.496 14.4465V14.8465ZM206.501 15.8359C207.799 16.3885 209.08 17.3412 210.34 18.7046L210.634 18.4331C209.346 17.04 208.021 16.0481 206.657 15.4678L206.501 15.8359ZM215.627 15.1704V14.9704H215.427V15.1704H215.627ZM226.998 15.1704H227.198V14.9704H226.998V15.1704ZM226.998 19.0503V19.2503H227.198V19.0503H226.998ZM219.564 19.0503V18.8503H219.364V19.0503H219.564ZM219.564 22.8169H219.364V23.0169H219.564V22.8169ZM226.998 22.8169H227.198V22.6169H226.998V22.8169ZM226.998 26.626V26.826H227.198V26.626H226.998ZM219.564 26.626V26.426H219.364V26.626H219.564ZM219.564 32.106H219.364V32.306H219.564V32.106ZM226.998 32.106H227.198V31.906H226.998V32.106ZM226.998 36V36.2H227.198V36H226.998ZM215.627 36H215.427V36.2H215.627V36ZM215.627 15.3704H226.998V14.9704H215.627V15.3704ZM226.798 15.1704V19.0503H227.198V15.1704H226.798ZM226.998 18.8503H219.564V19.2503H226.998V18.8503ZM219.364 19.0503V22.8169H219.764V19.0503H219.364ZM219.564 23.0169H226.998V22.6169H219.564V23.0169ZM226.798 22.8169V26.626H227.198V22.8169H226.798ZM226.998 26.426H219.564V26.826H226.998V26.426ZM219.364 26.626V32.106H219.764V26.626H219.364ZM219.564 32.306H226.998V31.906H219.564V32.306ZM226.798 32.106V36H227.198V32.106H226.798ZM226.998 35.8H215.627V36.2H226.998V35.8ZM215.827 36V15.1704H215.427V36H215.827ZM230.977 15.1704V14.9704H230.777V15.1704H230.977ZM240.096 15.7935L240.018 15.9774L240.02 15.9783L240.096 15.7935ZM242.362 24.6577L242.199 24.5415L242.199 24.5418L242.362 24.6577ZM239.402 26.7393L239.335 26.5509L239.117 26.6288L239.226 26.8332L239.402 26.7393ZM244.33 36V36.2H244.663L244.507 35.9061L244.33 36ZM239.997 36L239.82 36.0938L239.877 36.2H239.997V36ZM235.31 27.1782L235.487 27.0844L235.43 26.9782H235.31V27.1782ZM234.942 27.1782V26.9782H234.742V27.1782H234.942ZM234.942 36V36.2H235.142V36H234.942ZM230.977 36H230.777V36.2H230.977V36ZM234.942 23.3125H234.742V23.5125H234.942V23.3125ZM238.793 22.8169L238.68 22.652L238.679 22.653L238.793 22.8169ZM239.162 19.999L238.997 20.1131L238.999 20.1153L239.162 19.999ZM238.213 19.2769L238.142 19.4638L238.146 19.4652L238.213 19.2769ZM234.942 19.0503V18.8503H234.742V19.0503H234.942ZM230.977 15.3704H235.183V14.9704H230.977V15.3704ZM235.183 15.3704C237.483 15.3704 239.086 15.5792 240.018 15.9774L240.175 15.6095C239.162 15.177 237.489 14.9704 235.183 14.9704V15.3704ZM240.02 15.9783C240.961 16.3673 241.717 17.0182 242.291 17.9384L242.631 17.7267C242.015 16.74 241.195 16.0315 240.173 15.6086L240.02 15.9783ZM242.291 17.9384C242.863 18.8553 243.153 19.9454 243.153 21.2168H243.553C243.553 19.8827 243.248 18.7167 242.631 17.7267L242.291 17.9384ZM243.153 21.2168C243.153 22.5526 242.831 23.6567 242.199 24.5415L242.525 24.774C243.214 23.8085 243.553 22.6186 243.553 21.2168H243.153ZM242.199 24.5418C241.577 25.4166 240.628 26.0892 239.335 26.5509L239.47 26.9276C240.82 26.4453 241.844 25.7302 242.525 24.7736L242.199 24.5418ZM239.226 26.8332L244.154 36.0939L244.507 35.9061L239.579 26.6453L239.226 26.8332ZM244.33 35.8H239.997V36.2H244.33V35.8ZM240.174 35.9062L235.487 27.0844L235.133 27.2721L239.82 36.0938L240.174 35.9062ZM235.31 26.9782H234.942V27.3782H235.31V26.9782ZM234.742 27.1782V36H235.142V27.1782H234.742ZM234.942 35.8H230.977V36.2H234.942V35.8ZM231.177 36V15.1704H230.777V36H231.177ZM234.942 23.5125H236.188V23.1125H234.942V23.5125ZM236.188 23.5125C236.828 23.5125 237.375 23.4708 237.825 23.3851C238.274 23.2997 238.64 23.1685 238.908 22.9807L238.679 22.653C238.475 22.7957 238.171 22.9123 237.751 22.9921C237.333 23.0716 236.813 23.1125 236.188 23.1125V23.5125ZM238.907 22.9818C239.459 22.6029 239.716 21.9822 239.716 21.1743H239.316C239.316 21.8957 239.091 22.3701 238.68 22.652L238.907 22.9818ZM239.716 21.1743C239.716 20.6846 239.587 20.251 239.324 19.8828L238.999 20.1153C239.208 20.4079 239.316 20.7578 239.316 21.1743H239.716ZM239.326 19.8849C239.066 19.5102 238.715 19.2439 238.28 19.0885L238.146 19.4652C238.504 19.593 238.786 19.8082 238.997 20.1131L239.326 19.8849ZM238.284 19.09C237.849 18.9243 237.088 18.8503 236.032 18.8503V19.2503C237.091 19.2503 237.784 19.3273 238.142 19.4638L238.284 19.09ZM236.032 18.8503H234.942V19.2503H236.032V18.8503ZM234.742 19.0503V23.3125H235.142V19.0503H234.742ZM246.043 15.1704V14.9704H245.715L245.866 15.2624L246.043 15.1704ZM250.306 15.1704L250.483 15.0783L250.427 14.9704H250.306V15.1704ZM254.186 22.647L254.008 22.7391L254.186 23.0824L254.363 22.7386L254.186 22.647ZM258.037 15.1704V14.9704H257.915L257.859 15.0788L258.037 15.1704ZM262.243 15.1704L262.42 15.2621L262.571 14.9704H262.243V15.1704ZM256.154 26.98L255.976 26.8883L255.954 26.9315V26.98H256.154ZM256.154 36V36.2H256.354V36H256.154ZM252.161 36H251.961V36.2H252.161V36ZM252.161 26.98H252.361V26.9313L252.338 26.888L252.161 26.98ZM246.043 15.3704H250.306V14.9704H246.043V15.3704ZM250.128 15.2625L254.008 22.7391L254.363 22.5549L250.483 15.0783L250.128 15.2625ZM254.363 22.7386L258.215 15.262L257.859 15.0788L254.008 22.5554L254.363 22.7386ZM258.037 15.3704H262.243V14.9704H258.037V15.3704ZM262.065 15.0788L255.976 26.8883L256.332 27.0716L262.42 15.2621L262.065 15.0788ZM255.954 26.98V36H256.354V26.98H255.954ZM256.154 35.8H252.161V36.2H256.154V35.8ZM252.361 36V26.98H251.961V36H252.361ZM252.338 26.888L246.221 15.0784L245.866 15.2624L251.983 27.072L252.338 26.888Z" fill="#02006C"/>
</g>
<defs>
<filter id="filter0_d" x="0" y="0" width="266.243" height="52.8133" filterUnits="userSpaceOnUse" color-interpolation-filters="sRGB">
<feFlood flood-opacity="0" result="BackgroundImageFix"/>
<feColorMatrix in="SourceAlpha" type="matrix" values="0 0 0 0 0 0 0 0 0 0 0 0 0 0 0 0 0 0 127 0"/>
<feOffset dy="4"/>
<feGaussianBlur stdDeviation="2"/>
<feColorMatrix type="matrix" values="0 0 0 0 0 0 0 0 0 0 0 0 0 0 0 0 0 0 0.25 0"/>
<feBlend mode="normal" in2="BackgroundImageFix" result="effect1_dropShadow"/>
<feBlend mode="normal" in="SourceGraphic" in2="effect1_dropShadow" result="shape"/>
</filter>
<clipPath id="clip0">
<rect width="40" height="44.8133" fill="white" transform="translate(4)"/>
</clipPath>
</defs>
</svg>
